<?xml version="1.0" encoding="utf-8"?>
<!-- Generator: Adobe Illustrator 22.0.1, SVG Export Plug-In . SVG Version: 6.00 Build 0)  -->
<svg version="1.1" id="Layer_1" xmlns="http://www.w3.org/2000/svg" xmlns:xlink="http://www.w3.org/1999/xlink" x="0px" y="0px"
	 viewBox="0 0 326.8 100.1" style="enable-background:new 0 0 326.8 100.1;" xml:space="preserve">
<style type="text/css">
	.st0{fill:#FFBD3B;}
	.st1{enable-background:new    ;}
	.st2{fill:#FFFFFF;}
</style>
<path class="st0" d="M34.6,52.5H23.2c-2.4,0-3.5-2.9-1.9-4.5l33.2-33.2c1.7-1.7,4.5-0.5,4.5,1.9v33.2c0,1.5,1.2,2.7,2.7,2.7h11.8
	c2.4,0,3.5,2.9,1.9,4.5L42.6,89.9c-1.6,1.6-4.5,0.5-4.5-1.8l-0.9-33C37.2,53.7,36,52.5,34.6,52.5z"/>
<g class="st1">
	<path class="st2" d="M122.3,59.8c0,4.2-1.5,7.5-4.6,10.1s-7,3.8-11.7,3.8c-3.2,0-6.5-0.6-9.9-1.7c-3.4-1.1-6.5-2.8-9.2-5l5.2-7.4
		c4.4,3.4,9.1,5.1,14.1,5.1c1.5,0,2.7-0.3,3.6-0.9c0.9-0.6,1.3-1.4,1.3-2.4c0-1-0.6-1.9-1.9-2.8c-1.2-0.8-3-1.6-5.4-2.4
		c-2.3-0.7-4.1-1.4-5.4-1.9c-1.2-0.5-2.6-1.3-4.2-2.3c-3.2-2-4.8-5-4.8-8.9c0-3.9,1.6-7.1,4.7-9.6c3.2-2.5,7.2-3.7,12.2-3.7
		c5,0,10,1.7,15,5.1l-4.4,7.9c-3.7-2.5-7.4-3.8-11-3.8c-3.7,0-5.5,1-5.5,3c0,1.1,0.6,2,1.7,2.6c1.2,0.6,3.1,1.4,5.8,2.2
		c2.7,0.8,4.6,1.5,5.7,1.9c1.1,0.4,2.5,1.1,4.1,2.1C120.8,52.6,122.3,55.6,122.3,59.8z"/>
	<path class="st2" d="M153.2,29.8c4.9,0,9.4,2.1,13.2,6.2c3.9,4.1,5.8,9.3,5.8,15.6c0,6.3-1.9,11.5-5.8,15.7
		c-3.9,4.2-8.4,6.3-13.6,6.3c-5.2,0-9.4-2.1-12.5-6.2v20.9h-11.9V30.5h11.9v4.7C143.9,31.6,148.2,29.8,153.2,29.8z M140.1,51.8
		c0,3.5,1,6.3,2.9,8.5c1.9,2.2,4.3,3.3,7,3.3c2.7,0,5.1-1.1,7.2-3.3c2.1-2.2,3.1-5,3.1-8.4c0-3.4-1-6.3-3-8.6
		c-2-2.3-4.4-3.5-7.2-3.5c-2.8,0-5.1,1.1-7.1,3.4C141.1,45.5,140.1,48.4,140.1,51.8z"/>
	<path class="st2" d="M182.1,67.6c-4.1-4.1-6.1-9.4-6.1-16c0-6.6,2.1-11.9,6.2-15.8c4.2-4,9-5.9,14.5-5.9c4.3,0,8,1.4,11.1,4.3v-3.6
		h11.9V73h-11.9v-3.5c-3.4,2.7-7.2,4.1-11.5,4.1C190.9,73.6,186.1,71.6,182.1,67.6z M187.9,51.8c0,3.5,1,6.3,3.1,8.5
		c2.1,2.2,4.5,3.3,7.2,3.3c2.7,0,5.1-1.1,7-3.3c1.9-2.2,2.8-5,2.8-8.5c0-3.4-0.9-6.3-2.8-8.6c-1.9-2.3-4.2-3.5-7-3.5
		c-2.8,0-5.2,1.1-7.2,3.4C188.9,45.5,187.9,48.4,187.9,51.8z"/>
	<path class="st2" d="M250.8,40.9c-3.5,0-6.2,1.3-7.9,3.8c-1.7,2.5-2.6,5.8-2.6,9.9V73h-11.9V30.5h11.9v5.6c1.5-1.7,3.4-3.2,5.7-4.4
		c2.3-1.2,4.6-1.8,7-1.9l0.1,11.1H250.8z"/>
	<path class="st2" d="M269.9,73H258V14.4h11.9v30.1l13.2-14.1H298l-16.2,17.2L298.6,73h-14.1l-10.8-16.3l-3.9,4V73z"/>
</g>
</svg>
